# xmcd
#
# Track frame offsets: 
#        150
#        14324
#        28503
#        43583
#        58889
#        77869
#        92950
#        102706
#        115157
#        130535
#        145391
#        156416
#        167970
#        184100
#        200367
#        214621
#        227676
#        248081
#        264436
#
# Disc length: 3731 seconds
#
# Revision: 0
# Processed by: cddbd v1.5.2PL0 Copyright (c) Steve Scherf et al.
# Submitted via: ExactAudioCopy v0.99pb3
#
DISCID=0d0e9113
DTITLE=Daniel T. Coates - Jenny Works in There
DYEAR=2011
DGENRE=Country
TTITLE0=Danger Ahead
TTITLE1=Jenny Works in There
TTITLE2=Black Hearted Night
TTITLE3=By The Time I Get To Nashville
TTITLE4=Ain't No Wolf
TTITLE5=Call My Name
TTITLE6=Ernest, Hank and Lefty
TTITLE7=Miss Out On Lovin' You
TTITLE8=Out In The Barn
TTITLE9=You'll Know When It's Right
TTITLE10=Paul's Coatestails Jam
TTITLE11=I Don't Know
TTITLE12=This Waste Of Time Ain't My Time
TTITLE13=Blue Virginia Blues
TTITLE14=Make The World Go Round
TTITLE15=See The Big Man Cry
TTITLE16=Left Virginia
TTITLE17=Walkin' Down This Road
TTITLE18=Sitting, Waiting, Wishing
EXTD=
EXTT0=
EXTT1=
EXTT2=
EXTT3=
EXTT4=
EXTT5=
EXTT6=
EXTT7=
EXTT8=
EXTT9=
EXTT10=
EXTT11=
EXTT12=
EXTT13=
EXTT14=
EXTT15=
EXTT16=
EXTT17=
EXTT18=
PLAYORDER=
